<svg xmlns="http://www.w3.org/2000/svg" xmlns:xlink="http://www.w3.org/1999/xlink" width="55" height="55" viewBox="0 0 55 55">
  <defs>
    <clipPath id="clip-path">
      <circle id="Ellipse_9" data-name="Ellipse 9" cx="17.5" cy="17.5" r="17.5" transform="translate(1287 2606)" fill="#fff" stroke="#707070" stroke-width="1"/>
    </clipPath>
  </defs>
  <g id="Group_39" data-name="Group 39" transform="translate(-1365 -2677)">
    <g id="Group_35" data-name="Group 35" transform="translate(78 71)">
      <g id="Ellipse_9-2" data-name="Ellipse 9" transform="translate(1287 2606)" fill="#fff" stroke="#707070" stroke-width="5">
        <circle cx="27.5" cy="27.5" r="27.5" stroke="none"/>
        <circle cx="27.5" cy="27.5" r="25" fill="none"/>
      </g>
    </g>
    <g id="Group_36" data-name="Group 36" transform="translate(88 81)">
      <g id="Mask_Group_2" data-name="Mask Group 2" clip-path="url(#clip-path)">
        <path id="github" d="M21,3.931a17.5,17.5,0,0,0-5.534,34.1c.875.153,1.2-.372,1.2-.831,0-.416-.022-1.794-.022-3.259-4.4.809-5.534-1.072-5.884-2.056a6.362,6.362,0,0,0-1.794-2.472c-.612-.328-1.487-1.137-.022-1.159a3.5,3.5,0,0,1,2.69,1.794,3.74,3.74,0,0,0,5.1,1.444,3.681,3.681,0,0,1,1.116-2.34c-3.893-.437-7.962-1.947-7.962-8.64a6.81,6.81,0,0,1,1.794-4.7,6.288,6.288,0,0,1,.175-4.637s1.465-.459,4.812,1.794a16.5,16.5,0,0,1,8.749,0c3.347-2.275,4.812-1.794,4.812-1.794a6.288,6.288,0,0,1,.175,4.637,6.77,6.77,0,0,1,1.794,4.7c0,6.715-4.09,8.2-7.984,8.64a4.144,4.144,0,0,1,1.181,3.237c0,2.34-.022,4.221-.022,4.812,0,.459.328,1.006,1.2.831A17.508,17.508,0,0,0,21,3.931Z" transform="translate(1283.502 2602.502)" fill="#707070"/>
      </g>
    </g>
  </g>
</svg>
